<svg width="134" height="100" viewBox="0 0 134 100" fill="none" xmlns="http://www.w3.org/2000/svg">
<g filter="url(#filter0_d_109_11)">
<path fill-rule="evenodd" clip-rule="evenodd" d="M109.94 68.7336C86.3344 114.422 29.7376 101.747 15.6353 68.7336H24.7989C38.2459 89.9876 74.9705 103.813 97.979 68.628L109.94 68.7336Z" fill="#C35909"/>
<path fill-rule="evenodd" clip-rule="evenodd" d="M115.124 68.7336C91.5189 114.422 34.6413 101.747 20.5506 68.7336H29.9834C43.4304 89.9876 84.2161 103.93 107.225 68.7336H115.124Z" fill="#EE7C00"/>
<path fill-rule="evenodd" clip-rule="evenodd" d="M20.7847 29.704C44.3901 -15.9845 101.209 -3.30955 115.312 29.704H105.926C92.4785 8.44997 56.5146 -5.49245 33.5061 29.704H20.773H20.7847Z" fill="#C35909"/>
<path fill-rule="evenodd" clip-rule="evenodd" d="M15.6002 29.704C39.2055 -15.9845 96.0831 -3.30955 110.174 29.704H100.741C87.294 8.44997 46.5083 -5.49245 23.4998 29.704H15.6002Z" fill="#EE7C00"/>
<path d="M12.3328 38.368C12.4308 38.368 12.5265 38.3657 12.6198 38.361C12.7131 38.3517 12.7925 38.312 12.8578 38.242C12.9418 38.1487 12.9838 38.0063 12.9838 37.815C12.9838 37.7497 12.9768 37.682 12.9628 37.612C12.9488 37.542 12.9091 37.4813 12.8438 37.43C12.7785 37.374 12.7015 37.3413 12.6128 37.332C12.5288 37.3227 12.4401 37.318 12.3468 37.318H11.4718C11.4065 37.318 11.3551 37.3297 11.3178 37.353C11.2851 37.3717 11.2595 37.395 11.2408 37.423C11.2221 37.451 11.2105 37.4813 11.2058 37.514C11.2011 37.5467 11.1988 37.577 11.1988 37.605V38.368H12.3328ZM9.61681 41V37.024C9.61681 36.9213 9.62847 36.807 9.65181 36.681C9.67514 36.555 9.72881 36.4453 9.81281 36.352C9.86414 36.2913 9.94347 36.2353 10.0508 36.184C10.1581 36.128 10.2958 36.1 10.4638 36.1H13.1728C13.3688 36.1 13.5555 36.121 13.7328 36.163C13.9101 36.2003 14.0665 36.2937 14.2018 36.443C14.3185 36.5643 14.4071 36.73 14.4678 36.94C14.5331 37.1453 14.5658 37.4253 14.5658 37.78C14.5658 37.864 14.5611 37.976 14.5518 38.116C14.5471 38.2513 14.5285 38.3937 14.4958 38.543C14.4678 38.6923 14.4235 38.837 14.3628 38.977C14.3068 39.117 14.2275 39.2313 14.1248 39.32C14.0081 39.418 13.8681 39.488 13.7048 39.53C13.5461 39.5673 13.3991 39.586 13.2638 39.586H11.1988V41H9.61681Z" fill="white"/>
<path d="M16.7156 41C16.6129 41 16.5102 40.993 16.4076 40.979C16.3096 40.9603 16.2139 40.9113 16.1206 40.832C16.0086 40.7387 15.9432 40.643 15.9246 40.545C15.9059 40.4423 15.8966 40.3327 15.8966 40.216V36.856C15.8966 36.7627 15.9082 36.667 15.9316 36.569C15.9549 36.471 16.0132 36.38 16.1066 36.296C16.1999 36.212 16.3002 36.1583 16.4076 36.135C16.5149 36.1117 16.6129 36.1 16.7016 36.1H20.2226V37.29H17.8006C17.7539 37.29 17.7072 37.297 17.6606 37.311C17.6186 37.3203 17.5836 37.3367 17.5556 37.36C17.5182 37.3927 17.4949 37.4323 17.4856 37.479C17.4809 37.5257 17.4786 37.5653 17.4786 37.598V37.969H20.1526V39.033H17.4786V39.565C17.4786 39.6163 17.4856 39.656 17.4996 39.684C17.5136 39.712 17.5299 39.733 17.5486 39.747C17.5859 39.7843 17.6326 39.8053 17.6886 39.81C17.7446 39.81 17.7982 39.81 17.8496 39.81H20.2436V41H16.7156Z" fill="white"/>
<path d="M25.1534 41L23.6694 39.103C23.6088 39.0237 23.5458 38.9303 23.4804 38.823C23.4151 38.711 23.3824 38.6013 23.3824 38.494C23.3824 38.4007 23.4058 38.305 23.4524 38.207C23.5038 38.109 23.5551 38.0227 23.6064 37.948L24.9224 36.1H26.7984L25.0974 38.123C25.0041 38.2303 24.9457 38.312 24.9224 38.368C24.9037 38.424 24.8944 38.4637 24.8944 38.487C24.8944 38.5663 24.9247 38.6457 24.9854 38.725C25.0461 38.8043 25.1021 38.872 25.1534 38.928L27.0574 41H25.1534ZM21.6464 36.1H23.2284V41H21.6464V36.1Z" fill="white"/>
<path d="M29.5057 36.548C29.557 36.4313 29.627 36.3403 29.7157 36.275C29.8043 36.205 29.8977 36.1537 29.9957 36.121C30.0983 36.0837 30.1987 36.0627 30.2967 36.058C30.3993 36.0487 30.488 36.044 30.5627 36.044C30.6373 36.044 30.7237 36.0487 30.8217 36.058C30.9243 36.0627 31.0247 36.0837 31.1227 36.121C31.2253 36.1537 31.321 36.205 31.4097 36.275C31.4983 36.3403 31.5683 36.4313 31.6197 36.548L33.5027 41H31.8227L30.6397 37.759C30.6303 37.745 30.6187 37.7217 30.6047 37.689C30.5953 37.6563 30.5813 37.64 30.5627 37.64C30.544 37.64 30.5277 37.6563 30.5137 37.689C30.5043 37.7217 30.495 37.745 30.4857 37.759L29.3027 41H27.6227L29.5057 36.548Z" fill="white"/>
<path d="M36.6339 38.872H37.6419L37.2009 37.633C37.1915 37.6143 37.1799 37.5933 37.1659 37.57C37.1565 37.542 37.1472 37.528 37.1379 37.528C37.1285 37.528 37.1169 37.542 37.1029 37.57C37.0935 37.5933 37.0842 37.6143 37.0749 37.633L36.6339 38.872ZM36.0179 36.639C36.0552 36.5503 36.0995 36.4687 36.1509 36.394C36.2022 36.3193 36.2699 36.2563 36.3539 36.205C36.4379 36.1537 36.5405 36.114 36.6619 36.086C36.7879 36.058 36.9465 36.044 37.1379 36.044C37.2545 36.044 37.3665 36.051 37.4739 36.065C37.5859 36.0743 37.6885 36.1 37.7819 36.142C37.8799 36.1793 37.9685 36.2377 38.0479 36.317C38.1319 36.3963 38.2019 36.5037 38.2579 36.639L40.0709 41H38.4049L38.0199 39.992H36.2559L35.8709 41H34.2049L36.0179 36.639Z" fill="white"/>
<path d="M45.3898 40.398C45.3618 40.4867 45.3291 40.5707 45.2918 40.65C45.2545 40.7293 45.2008 40.7993 45.1308 40.86C45.0655 40.9207 44.9768 40.9673 44.8648 41C44.7575 41.0373 44.6175 41.056 44.4448 41.056C44.2721 41.056 44.1298 41.0373 44.0178 41C43.9105 40.9673 43.8218 40.9207 43.7518 40.86C43.6865 40.7993 43.6351 40.7293 43.5978 40.65C43.5605 40.5707 43.5278 40.4867 43.4998 40.398L42.7438 38.032C42.7298 37.9853 42.7135 37.9457 42.6948 37.913C42.6808 37.8757 42.6645 37.857 42.6458 37.857C42.6131 37.857 42.5945 37.878 42.5898 37.92C42.5898 37.962 42.5898 37.9947 42.5898 38.018L42.6388 41H41.0498V36.905C41.0498 36.6903 41.1011 36.5247 41.2038 36.408C41.3065 36.2913 41.4231 36.2073 41.5538 36.156C41.6891 36.1 41.8221 36.0673 41.9528 36.058C42.0881 36.0487 42.1885 36.044 42.2538 36.044C42.3565 36.044 42.4661 36.051 42.5828 36.065C42.7041 36.079 42.8231 36.114 42.9398 36.17C43.0565 36.2213 43.1638 36.3007 43.2618 36.408C43.3598 36.5153 43.4415 36.6647 43.5068 36.856L44.2978 39.236C44.3025 39.25 44.3095 39.2687 44.3188 39.292C44.3281 39.3153 44.3398 39.341 44.3538 39.369C44.3678 39.3923 44.3818 39.4133 44.3958 39.432C44.4145 39.4507 44.4308 39.46 44.4448 39.46C44.4588 39.46 44.4728 39.4507 44.4868 39.432C44.5055 39.4133 44.5218 39.3923 44.5358 39.369C44.5498 39.341 44.5615 39.3153 44.5708 39.292C44.5801 39.2687 44.5871 39.25 44.5918 39.236L45.3828 36.856C45.4435 36.6647 45.5228 36.5153 45.6208 36.408C45.7235 36.3007 45.8331 36.2213 45.9498 36.17C46.0665 36.114 46.1831 36.079 46.2998 36.065C46.4211 36.051 46.5355 36.044 46.6428 36.044C46.9228 36.044 47.1421 36.0743 47.3008 36.135C47.4595 36.1957 47.5785 36.2703 47.6578 36.359C47.7418 36.4477 47.7931 36.5433 47.8118 36.646C47.8351 36.744 47.8468 36.8303 47.8468 36.905V41H46.2508L46.3068 38.018C46.3068 37.9527 46.2998 37.9107 46.2858 37.892C46.2718 37.8687 46.2578 37.857 46.2438 37.857C46.2298 37.857 46.2158 37.871 46.2018 37.899C46.1878 37.9223 46.1691 37.9667 46.1458 38.032L45.3898 40.398Z" fill="white"/>
<path d="M54.2608 41H52.6788V39.054H50.9008V41H49.3188V36.1H50.9008V37.836H52.6788V36.1H54.2608V41Z" fill="white"/>
<path d="M57.2125 38.55C57.2125 38.746 57.2218 38.921 57.2405 39.075C57.2638 39.2243 57.3152 39.3597 57.3945 39.481C57.4458 39.5603 57.5018 39.6257 57.5625 39.677C57.6278 39.7237 57.6955 39.7587 57.7655 39.782C57.8402 39.8053 57.9195 39.8217 58.0035 39.831C58.0922 39.8357 58.1855 39.838 58.2835 39.838C58.3862 39.838 58.4795 39.8357 58.5635 39.831C58.6522 39.8217 58.7315 39.8053 58.8015 39.782C58.8715 39.7587 58.9368 39.7237 58.9975 39.677C59.0582 39.6257 59.1165 39.5603 59.1725 39.481C59.2612 39.3503 59.3125 39.2127 59.3265 39.068C59.3452 38.9187 59.3545 38.746 59.3545 38.55C59.3545 38.4427 59.3522 38.347 59.3475 38.263C59.3475 38.179 59.3428 38.102 59.3335 38.032C59.3242 37.9573 59.3055 37.8873 59.2775 37.822C59.2542 37.7567 59.2192 37.689 59.1725 37.619C59.0652 37.4603 58.9415 37.3623 58.8015 37.325C58.6615 37.283 58.4888 37.262 58.2835 37.262C58.1808 37.262 58.0875 37.2667 58.0035 37.276C57.9195 37.2807 57.8402 37.297 57.7655 37.325C57.6908 37.3483 57.6232 37.3833 57.5625 37.43C57.5018 37.4767 57.4458 37.5397 57.3945 37.619C57.3058 37.7497 57.2522 37.8873 57.2335 38.032C57.2195 38.172 57.2125 38.3447 57.2125 38.55ZM58.2835 36.044C58.4702 36.044 58.6615 36.0487 58.8575 36.058C59.0535 36.0627 59.2448 36.0813 59.4315 36.114C59.6228 36.1467 59.8025 36.198 59.9705 36.268C60.1432 36.3333 60.2948 36.4267 60.4255 36.548C60.5562 36.6693 60.6588 36.8117 60.7335 36.975C60.8082 37.1383 60.8642 37.3087 60.9015 37.486C60.9388 37.6633 60.9598 37.8453 60.9645 38.032C60.9738 38.214 60.9785 38.3867 60.9785 38.55C60.9785 38.7133 60.9738 38.886 60.9645 39.068C60.9598 39.25 60.9388 39.4297 60.9015 39.607C60.8642 39.7843 60.8082 39.9547 60.7335 40.118C60.6588 40.2813 60.5562 40.426 60.4255 40.552C60.2948 40.6733 60.1432 40.769 59.9705 40.839C59.8025 40.9043 59.6228 40.9533 59.4315 40.986C59.2448 41.0187 59.0512 41.0373 58.8505 41.042C58.6545 41.0513 58.4655 41.056 58.2835 41.056C58.1015 41.056 57.9102 41.0513 57.7095 41.042C57.5135 41.0373 57.3198 41.0187 57.1285 40.986C56.9418 40.9533 56.7622 40.9043 56.5895 40.839C56.4215 40.769 56.2721 40.6733 56.1415 40.552C56.0061 40.426 55.9012 40.2813 55.8265 40.118C55.7565 39.9547 55.7028 39.7843 55.6655 39.607C55.6282 39.4297 55.6048 39.25 55.5955 39.068C55.5908 38.886 55.5885 38.7133 55.5885 38.55C55.5885 38.3867 55.5908 38.214 55.5955 38.032C55.6048 37.8453 55.6282 37.6633 55.6655 37.486C55.7028 37.3087 55.7565 37.1383 55.8265 36.975C55.9012 36.8117 56.0061 36.6693 56.1415 36.548C56.2721 36.4267 56.4215 36.3333 56.5895 36.268C56.7622 36.198 56.9418 36.1467 57.1285 36.114C57.3198 36.0813 57.5135 36.0627 57.7095 36.058C57.9055 36.0487 58.0968 36.044 58.2835 36.044Z" fill="white"/>
<path d="M63.128 41C63.0254 41 62.9227 40.993 62.82 40.979C62.722 40.9603 62.6264 40.9113 62.533 40.832C62.421 40.7387 62.3557 40.643 62.337 40.545C62.3184 40.4423 62.309 40.3327 62.309 40.216V36.856C62.309 36.7627 62.3207 36.667 62.344 36.569C62.3674 36.471 62.4257 36.38 62.519 36.296C62.6124 36.212 62.7127 36.1583 62.82 36.135C62.9274 36.1117 63.0254 36.1 63.114 36.1H66.635V37.29H64.213C64.1664 37.29 64.1197 37.297 64.073 37.311C64.031 37.3203 63.996 37.3367 63.968 37.36C63.9307 37.3927 63.9074 37.4323 63.898 37.479C63.8934 37.5257 63.891 37.5653 63.891 37.598V37.969H66.565V39.033H63.891V39.565C63.891 39.6163 63.898 39.656 63.912 39.684C63.926 39.712 63.9424 39.733 63.961 39.747C63.9984 39.7843 64.045 39.8053 64.101 39.81C64.157 39.81 64.2107 39.81 64.262 39.81H66.656V41H63.128Z" fill="white"/>
<path d="M72.2617 38.872H73.2697L72.8287 37.633C72.8193 37.6143 72.8077 37.5933 72.7937 37.57C72.7843 37.542 72.775 37.528 72.7657 37.528C72.7563 37.528 72.7447 37.542 72.7307 37.57C72.7213 37.5933 72.712 37.6143 72.7027 37.633L72.2617 38.872ZM71.6457 36.639C71.683 36.5503 71.7273 36.4687 71.7787 36.394C71.83 36.3193 71.8977 36.2563 71.9817 36.205C72.0657 36.1537 72.1683 36.114 72.2897 36.086C72.4157 36.058 72.5743 36.044 72.7657 36.044C72.8823 36.044 72.9943 36.051 73.1017 36.065C73.2137 36.0743 73.3163 36.1 73.4097 36.142C73.5077 36.1793 73.5963 36.2377 73.6757 36.317C73.7597 36.3963 73.8297 36.5037 73.8857 36.639L75.6987 41H74.0327L73.6477 39.992H71.8837L71.4987 41H69.8327L71.6457 36.639Z" fill="white"/>
<path d="M76.6776 41V36.996C76.6776 36.8887 76.687 36.779 76.7056 36.667C76.7243 36.5503 76.7803 36.4407 76.8736 36.338C76.939 36.2727 77.0206 36.2167 77.1186 36.17C77.2213 36.1233 77.3333 36.1 77.4546 36.1H81.1016V37.318H78.5886C78.5373 37.318 78.4836 37.3203 78.4276 37.325C78.3763 37.3297 78.3343 37.3507 78.3016 37.388C78.2783 37.416 78.2643 37.4533 78.2596 37.5C78.2596 37.5467 78.2596 37.591 78.2596 37.633V41H76.6776Z" fill="white"/>
<path d="M82.9697 41C82.8671 41 82.7644 40.993 82.6618 40.979C82.5638 40.9603 82.4681 40.9113 82.3747 40.832C82.2627 40.7387 82.1974 40.643 82.1787 40.545C82.1601 40.4423 82.1507 40.3327 82.1507 40.216V36.856C82.1507 36.7627 82.1624 36.667 82.1858 36.569C82.2091 36.471 82.2674 36.38 82.3607 36.296C82.4541 36.212 82.5544 36.1583 82.6618 36.135C82.7691 36.1117 82.8671 36.1 82.9557 36.1H86.4768V37.29H84.0547C84.0081 37.29 83.9614 37.297 83.9147 37.311C83.8727 37.3203 83.8377 37.3367 83.8097 37.36C83.7724 37.3927 83.7491 37.4323 83.7397 37.479C83.7351 37.5257 83.7327 37.5653 83.7327 37.598V37.969H86.4067V39.033H83.7327V39.565C83.7327 39.6163 83.7397 39.656 83.7537 39.684C83.7677 39.712 83.7841 39.733 83.8027 39.747C83.8401 39.7843 83.8867 39.8053 83.9427 39.81C83.9987 39.81 84.0524 39.81 84.1038 39.81H86.4977V41H82.9697Z" fill="white"/>
<path d="M92.7026 41H91.1206V39.054H89.3426V41H87.7606V36.1H89.3426V37.836H91.1206V36.1H92.7026V41Z" fill="white"/>
<path d="M95.5002 41V37.318H93.7502V36.1H98.8322V37.318H97.0822V41H95.5002Z" fill="white"/>
<path d="M101.864 41C101.672 41 101.495 40.993 101.332 40.979C101.173 40.9603 101.026 40.93 100.891 40.888C100.755 40.8413 100.629 40.7807 100.513 40.706C100.396 40.6267 100.289 40.524 100.191 40.398C100.116 40.3093 100.051 40.2113 99.9946 40.104C99.9386 39.992 99.892 39.866 99.8546 39.726C99.8173 39.5813 99.7893 39.418 99.7706 39.236C99.752 39.054 99.7426 38.8463 99.7426 38.613C99.7426 38.2023 99.7683 37.843 99.8196 37.535C99.8756 37.227 99.9923 36.961 100.17 36.737C100.282 36.5923 100.408 36.478 100.548 36.394C100.688 36.31 100.832 36.247 100.982 36.205C101.136 36.1583 101.29 36.1303 101.444 36.121C101.598 36.107 101.745 36.1 101.885 36.1H103.957V37.318H102.648C102.517 37.318 102.396 37.3203 102.284 37.325C102.172 37.325 102.069 37.339 101.976 37.367C101.882 37.3903 101.798 37.4277 101.724 37.479C101.649 37.5303 101.584 37.605 101.528 37.703C101.49 37.7637 101.46 37.8337 101.437 37.913C101.418 37.9877 101.404 38.067 101.395 38.151C101.385 38.2303 101.378 38.3073 101.374 38.382C101.369 38.4567 101.367 38.5243 101.367 38.585C101.367 38.7203 101.371 38.8347 101.381 38.928C101.39 39.0213 101.399 39.1007 101.409 39.166C101.423 39.2267 101.437 39.2757 101.451 39.313C101.465 39.3503 101.476 39.3783 101.486 39.397C101.537 39.495 101.602 39.5697 101.682 39.621C101.766 39.6723 101.859 39.7097 101.962 39.733C102.064 39.7563 102.176 39.7703 102.298 39.775C102.419 39.7797 102.545 39.782 102.676 39.782H104.034V41H101.864Z" fill="white"/>
<path d="M106.693 41V37.318H104.943V36.1H110.025V37.318H108.275V41H106.693Z" fill="white"/>
<path d="M112.657 39.418C112.657 39.502 112.662 39.5673 112.671 39.614C112.68 39.656 112.694 39.6887 112.713 39.712C112.746 39.7493 112.792 39.7703 112.853 39.775C112.918 39.7797 112.97 39.782 113.007 39.782H113.847C113.996 39.782 114.099 39.7703 114.155 39.747C114.216 39.7237 114.253 39.7027 114.267 39.684C114.29 39.656 114.311 39.614 114.33 39.558C114.349 39.502 114.358 39.4483 114.358 39.397C114.358 39.313 114.337 39.243 114.295 39.187C114.244 39.117 114.178 39.0773 114.099 39.068C114.024 39.054 113.954 39.047 113.889 39.047H112.657V39.418ZM113.833 37.983C113.898 37.983 113.966 37.9783 114.036 37.969C114.111 37.955 114.169 37.9153 114.211 37.85C114.23 37.8173 114.241 37.78 114.246 37.738C114.255 37.696 114.26 37.6587 114.26 37.626C114.26 37.5793 114.253 37.5397 114.239 37.507C114.225 37.4697 114.206 37.4393 114.183 37.416C114.132 37.3647 114.071 37.3367 114.001 37.332C113.936 37.3227 113.877 37.318 113.826 37.318H112.923C112.886 37.318 112.851 37.3203 112.818 37.325C112.785 37.3297 112.753 37.346 112.72 37.374C112.683 37.4067 112.662 37.4417 112.657 37.479C112.657 37.5117 112.657 37.5467 112.657 37.584V37.983H113.833ZM111.075 36.891C111.075 36.653 111.131 36.471 111.243 36.345C111.304 36.275 111.383 36.2167 111.481 36.17C111.584 36.1233 111.689 36.1 111.796 36.1H114.456C114.545 36.1 114.636 36.1047 114.729 36.114C114.827 36.1187 114.923 36.1327 115.016 36.156C115.109 36.1747 115.198 36.205 115.282 36.247C115.371 36.289 115.45 36.3473 115.52 36.422C115.59 36.492 115.644 36.5713 115.681 36.66C115.723 36.7487 115.753 36.8397 115.772 36.933C115.795 37.0263 115.809 37.1197 115.814 37.213C115.823 37.3063 115.828 37.3927 115.828 37.472C115.828 37.6073 115.814 37.738 115.786 37.864C115.763 37.99 115.695 38.1137 115.583 38.235C115.448 38.3843 115.284 38.466 115.093 38.48V38.508C115.219 38.5173 115.331 38.5477 115.429 38.599C115.527 38.6457 115.609 38.6993 115.674 38.76C115.805 38.886 115.882 39.026 115.905 39.18C115.928 39.3293 115.94 39.4787 115.94 39.628C115.94 39.7073 115.938 39.7913 115.933 39.88C115.933 39.964 115.924 40.0503 115.905 40.139C115.886 40.2277 115.856 40.3163 115.814 40.405C115.777 40.4937 115.721 40.5777 115.646 40.657C115.567 40.741 115.485 40.8063 115.401 40.853C115.317 40.8997 115.228 40.9347 115.135 40.958C115.046 40.9767 114.951 40.9883 114.848 40.993C114.75 40.9977 114.65 41 114.547 41H111.985C111.929 41 111.871 41 111.81 41C111.749 41 111.686 40.993 111.621 40.979C111.556 40.965 111.493 40.9417 111.432 40.909C111.371 40.8763 111.313 40.8297 111.257 40.769C111.196 40.699 111.15 40.615 111.117 40.517C111.089 40.4143 111.075 40.3163 111.075 40.223V36.891Z" fill="white"/>
<path d="M118.757 38.55C118.757 38.746 118.766 38.921 118.785 39.075C118.808 39.2243 118.859 39.3597 118.939 39.481C118.99 39.5603 119.046 39.6257 119.107 39.677C119.172 39.7237 119.24 39.7587 119.31 39.782C119.384 39.8053 119.464 39.8217 119.548 39.831C119.636 39.8357 119.73 39.838 119.828 39.838C119.93 39.838 120.024 39.8357 120.108 39.831C120.196 39.8217 120.276 39.8053 120.346 39.782C120.416 39.7587 120.481 39.7237 120.542 39.677C120.602 39.6257 120.661 39.5603 120.717 39.481C120.805 39.3503 120.857 39.2127 120.871 39.068C120.889 38.9187 120.899 38.746 120.899 38.55C120.899 38.4427 120.896 38.347 120.892 38.263C120.892 38.179 120.887 38.102 120.878 38.032C120.868 37.9573 120.85 37.8873 120.822 37.822C120.798 37.7567 120.763 37.689 120.717 37.619C120.609 37.4603 120.486 37.3623 120.346 37.325C120.206 37.283 120.033 37.262 119.828 37.262C119.725 37.262 119.632 37.2667 119.548 37.276C119.464 37.2807 119.384 37.297 119.31 37.325C119.235 37.3483 119.167 37.3833 119.107 37.43C119.046 37.4767 118.99 37.5397 118.939 37.619C118.85 37.7497 118.796 37.8873 118.778 38.032C118.764 38.172 118.757 38.3447 118.757 38.55ZM119.828 36.044C120.014 36.044 120.206 36.0487 120.402 36.058C120.598 36.0627 120.789 36.0813 120.976 36.114C121.167 36.1467 121.347 36.198 121.515 36.268C121.687 36.3333 121.839 36.4267 121.97 36.548C122.1 36.6693 122.203 36.8117 122.278 36.975C122.352 37.1383 122.408 37.3087 122.446 37.486C122.483 37.6633 122.504 37.8453 122.509 38.032C122.518 38.214 122.523 38.3867 122.523 38.55C122.523 38.7133 122.518 38.886 122.509 39.068C122.504 39.25 122.483 39.4297 122.446 39.607C122.408 39.7843 122.352 39.9547 122.278 40.118C122.203 40.2813 122.1 40.426 121.97 40.552C121.839 40.6733 121.687 40.769 121.515 40.839C121.347 40.9043 121.167 40.9533 120.976 40.986C120.789 41.0187 120.595 41.0373 120.395 41.042C120.199 41.0513 120.01 41.056 119.828 41.056C119.646 41.056 119.454 41.0513 119.254 41.042C119.058 41.0373 118.864 41.0187 118.673 40.986C118.486 40.9533 118.306 40.9043 118.134 40.839C117.966 40.769 117.816 40.6733 117.686 40.552C117.55 40.426 117.445 40.2813 117.371 40.118C117.301 39.9547 117.247 39.7843 117.21 39.607C117.172 39.4297 117.149 39.25 117.14 39.068C117.135 38.886 117.133 38.7133 117.133 38.55C117.133 38.3867 117.135 38.214 117.14 38.032C117.149 37.8453 117.172 37.6633 117.21 37.486C117.247 37.3087 117.301 37.1383 117.371 36.975C117.445 36.8117 117.55 36.6693 117.686 36.548C117.816 36.4267 117.966 36.3333 118.134 36.268C118.306 36.198 118.486 36.1467 118.673 36.114C118.864 36.0813 119.058 36.0627 119.254 36.058C119.45 36.0487 119.641 36.044 119.828 36.044Z" fill="white"/>
<path d="M15.7508 56.578C16.5134 56.578 17.0768 56.4653 17.4408 56.24C17.8048 56.0147 18.0648 55.7027 18.2208 55.304C18.3074 55.096 18.3594 54.8707 18.3768 54.628C18.4114 54.3853 18.4288 54.108 18.4288 53.796C18.4288 53.328 18.4114 52.964 18.3768 52.704C18.3421 52.4267 18.2814 52.2013 18.1948 52.028C18.0041 51.612 17.7094 51.3347 17.3108 51.196C16.9121 51.04 16.4614 50.962 15.9588 50.962H15.2308V56.578H15.7508ZM9.35476 50.962H8.62676C8.12409 50.962 7.67342 51.04 7.27476 51.196C6.87609 51.3347 6.58142 51.612 6.39076 52.028C6.30409 52.2013 6.24342 52.4267 6.20876 52.704C6.17409 52.964 6.15676 53.328 6.15676 53.796C6.15676 54.108 6.16542 54.3853 6.18276 54.628C6.21742 54.8707 6.27809 55.096 6.36476 55.304C6.52076 55.7027 6.78076 56.0147 7.14476 56.24C7.50876 56.4653 8.07209 56.578 8.83476 56.578H9.35476V50.962ZM15.2308 44.8V46.438H18.0128C18.6368 46.438 19.2174 46.4553 19.7548 46.49C20.3094 46.5073 20.8121 46.5853 21.2628 46.724C21.7308 46.8453 22.1468 47.036 22.5108 47.296C22.8748 47.5387 23.1954 47.8853 23.4728 48.336C23.5421 48.4573 23.6288 48.648 23.7328 48.908C23.8541 49.1507 23.9668 49.48 24.0708 49.896C24.1748 50.312 24.2614 50.832 24.3308 51.456C24.4174 52.0627 24.4608 52.7993 24.4608 53.666C24.4608 54.0647 24.4434 54.5067 24.4088 54.992C24.3914 55.46 24.3481 55.9367 24.2788 56.422C24.2268 56.9073 24.1488 57.3753 24.0448 57.826C23.9408 58.2593 23.8108 58.6407 23.6548 58.97C23.4121 59.4727 23.1088 59.8713 22.7448 60.166C22.3808 60.4433 21.9821 60.6513 21.5488 60.79C21.1154 60.9287 20.6561 61.0153 20.1708 61.05C19.6854 61.0847 19.2088 61.102 18.7408 61.102H15.2308V63H9.35476V61.102H5.84476C5.37676 61.102 4.90009 61.0847 4.41476 61.05C3.92942 61.0153 3.47009 60.9287 3.03676 60.79C2.60342 60.6513 2.20476 60.4433 1.84076 60.166C1.47676 59.8713 1.17342 59.4727 0.930756 58.97C0.774756 58.6407 0.644756 58.2593 0.540756 57.826C0.436756 57.3753 0.350089 56.9073 0.280756 56.422C0.228756 55.9367 0.185423 55.46 0.150756 54.992C0.133423 54.5067 0.124756 54.0647 0.124756 53.666C0.124756 52.7993 0.159423 52.0627 0.228756 51.456C0.315423 50.832 0.410756 50.312 0.514756 49.896C0.618756 49.48 0.722756 49.1507 0.826756 48.908C0.948089 48.648 1.04342 48.4573 1.11276 48.336C1.39009 47.8853 1.71076 47.5387 2.07476 47.296C2.43876 47.036 2.84609 46.8453 3.29676 46.724C3.76476 46.5853 4.26742 46.5073 4.80476 46.49C5.35942 46.4553 5.94876 46.438 6.57276 46.438H9.35476V44.8H15.2308Z" fill="white"/>
<path d="M32.0552 53.9C32.0552 54.628 32.0899 55.278 32.1592 55.85C32.2459 56.4047 32.4365 56.9073 32.7312 57.358C32.9219 57.6527 33.1299 57.8953 33.3552 58.086C33.5979 58.2593 33.8492 58.3893 34.1092 58.476C34.3865 58.5627 34.6812 58.6233 34.9932 58.658C35.3225 58.6753 35.6692 58.684 36.0332 58.684C36.4145 58.684 36.7612 58.6753 37.0732 58.658C37.4025 58.6233 37.6972 58.5627 37.9572 58.476C38.2172 58.3893 38.4599 58.2593 38.6852 58.086C38.9105 57.8953 39.1272 57.6527 39.3352 57.358C39.6645 56.8727 39.8552 56.3613 39.9072 55.824C39.9765 55.2693 40.0112 54.628 40.0112 53.9C40.0112 53.5013 40.0025 53.146 39.9852 52.834C39.9852 52.522 39.9679 52.236 39.9332 51.976C39.8985 51.6987 39.8292 51.4387 39.7252 51.196C39.6385 50.9533 39.5085 50.702 39.3352 50.442C38.9365 49.8527 38.4772 49.4887 37.9572 49.35C37.4372 49.194 36.7959 49.116 36.0332 49.116C35.6519 49.116 35.3052 49.1333 34.9932 49.168C34.6812 49.1853 34.3865 49.246 34.1092 49.35C33.8319 49.4367 33.5805 49.5667 33.3552 49.74C33.1299 49.9133 32.9219 50.1473 32.7312 50.442C32.4019 50.9273 32.2025 51.4387 32.1332 51.976C32.0812 52.496 32.0552 53.1373 32.0552 53.9ZM36.0332 44.592C36.7265 44.592 37.4372 44.6093 38.1652 44.644C38.8932 44.6613 39.6039 44.7307 40.2972 44.852C41.0079 44.9733 41.6752 45.164 42.2992 45.424C42.9405 45.6667 43.5039 46.0133 43.9892 46.464C44.4745 46.9147 44.8559 47.4433 45.1332 48.05C45.4105 48.6567 45.6185 49.2893 45.7572 49.948C45.8959 50.6067 45.9739 51.2827 45.9912 51.976C46.0259 52.652 46.0432 53.2933 46.0432 53.9C46.0432 54.5067 46.0259 55.148 45.9912 55.824C45.9739 56.5 45.8959 57.1673 45.7572 57.826C45.6185 58.4847 45.4105 59.1173 45.1332 59.724C44.8559 60.3307 44.4745 60.868 43.9892 61.336C43.5039 61.7867 42.9405 62.142 42.2992 62.402C41.6752 62.6447 41.0079 62.8267 40.2972 62.948C39.6039 63.0693 38.8845 63.1387 38.1392 63.156C37.4112 63.1907 36.7092 63.208 36.0332 63.208C35.3572 63.208 34.6465 63.1907 33.9012 63.156C33.1732 63.1387 32.4539 63.0693 31.7432 62.948C31.0499 62.8267 30.3825 62.6447 29.7412 62.402C29.1172 62.142 28.5625 61.7867 28.0772 61.336C27.5745 60.868 27.1845 60.3307 26.9072 59.724C26.6472 59.1173 26.4479 58.4847 26.3092 57.826C26.1705 57.1673 26.0839 56.5 26.0492 55.824C26.0319 55.148 26.0232 54.5067 26.0232 53.9C26.0232 53.2933 26.0319 52.652 26.0492 51.976C26.0839 51.2827 26.1705 50.6067 26.3092 49.948C26.4479 49.2893 26.6472 48.6567 26.9072 48.05C27.1845 47.4433 27.5745 46.9147 28.0772 46.464C28.5625 46.0133 29.1172 45.6667 29.7412 45.424C30.3825 45.164 31.0499 44.9733 31.7432 44.852C32.4539 44.7307 33.1732 44.6613 33.9012 44.644C34.6292 44.6093 35.3399 44.592 36.0332 44.592Z" fill="white"/>
<path d="M58.2132 53.224C58.5772 53.224 58.9326 53.2153 59.2792 53.198C59.6259 53.1633 59.9206 53.016 60.1632 52.756C60.4752 52.4093 60.6312 51.8807 60.6312 51.17C60.6312 50.9273 60.6052 50.676 60.5532 50.416C60.5012 50.156 60.3539 49.9307 60.1112 49.74C59.8686 49.532 59.5826 49.4107 59.2532 49.376C58.9412 49.3413 58.6119 49.324 58.2652 49.324H55.0152C54.7726 49.324 54.5819 49.3673 54.4432 49.454C54.3219 49.5233 54.2266 49.61 54.1572 49.714C54.0879 49.818 54.0446 49.9307 54.0272 50.052C54.0099 50.1733 54.0012 50.286 54.0012 50.39V53.224H58.2132ZM48.1252 63V48.232C48.1252 47.8507 48.1686 47.426 48.2552 46.958C48.3419 46.49 48.5412 46.0827 48.8532 45.736C49.0439 45.5107 49.3386 45.3027 49.7372 45.112C50.1359 44.904 50.6472 44.8 51.2712 44.8H61.3332C62.0612 44.8 62.7546 44.878 63.4132 45.034C64.0719 45.1727 64.6526 45.5193 65.1552 46.074C65.5886 46.5247 65.9179 47.14 66.1432 47.92C66.3859 48.6827 66.5072 49.7227 66.5072 51.04C66.5072 51.352 66.4899 51.768 66.4552 52.288C66.4379 52.7907 66.3686 53.3193 66.2472 53.874C66.1432 54.4287 65.9786 54.966 65.7532 55.486C65.5452 56.006 65.2506 56.4307 64.8692 56.76C64.4359 57.124 63.9159 57.384 63.3092 57.54C62.7199 57.6787 62.1739 57.748 61.6712 57.748H54.0012V63H48.1252Z" fill="white"/>
<path d="M84.7101 60.764C84.6061 61.0933 84.4847 61.4053 84.3461 61.7C84.2074 61.9947 84.0081 62.2547 83.7481 62.48C83.5054 62.7053 83.1761 62.8787 82.7601 63C82.3614 63.1387 81.8414 63.208 81.2001 63.208C80.5587 63.208 80.0301 63.1387 79.6141 63C79.2154 62.8787 78.8861 62.7053 78.6261 62.48C78.3834 62.2547 78.1927 61.9947 78.0541 61.7C77.9154 61.4053 77.7941 61.0933 77.6901 60.764L74.8821 51.976C74.8301 51.8027 74.7694 51.6553 74.7001 51.534C74.6481 51.3953 74.5874 51.326 74.5181 51.326C74.3967 51.326 74.3274 51.404 74.3101 51.56C74.3101 51.716 74.3101 51.8373 74.3101 51.924L74.4921 63H68.5901V47.79C68.5901 46.9927 68.7807 46.3773 69.1621 45.944C69.5434 45.5107 69.9767 45.1987 70.4621 45.008C70.9647 44.8 71.4587 44.6787 71.9441 44.644C72.4467 44.6093 72.8194 44.592 73.0621 44.592C73.4434 44.592 73.8507 44.618 74.2841 44.67C74.7347 44.722 75.1767 44.852 75.6101 45.06C76.0434 45.2507 76.4421 45.5453 76.8061 45.944C77.1701 46.3427 77.4734 46.8973 77.7161 47.608L80.6541 56.448C80.6714 56.5 80.6974 56.5693 80.7321 56.656C80.7667 56.7427 80.8101 56.838 80.8621 56.942C80.9141 57.0287 80.9661 57.1067 81.0181 57.176C81.0874 57.2453 81.1481 57.28 81.2001 57.28C81.2521 57.28 81.3041 57.2453 81.3561 57.176C81.4254 57.1067 81.4861 57.0287 81.5381 56.942C81.5901 56.838 81.6334 56.7427 81.6681 56.656C81.7027 56.5693 81.7287 56.5 81.7461 56.448L84.6841 47.608C84.9094 46.8973 85.2041 46.3427 85.5681 45.944C85.9494 45.5453 86.3567 45.2507 86.7901 45.06C87.2234 44.852 87.6567 44.722 88.0901 44.67C88.5407 44.618 88.9654 44.592 89.3641 44.592C90.4041 44.592 91.2187 44.7047 91.8081 44.93C92.3974 45.1553 92.8394 45.4327 93.1341 45.762C93.4461 46.0913 93.6367 46.4467 93.7061 46.828C93.7927 47.192 93.8361 47.5127 93.8361 47.79V63H87.9081L88.1161 51.924C88.1161 51.6813 88.0901 51.5253 88.0381 51.456C87.9861 51.3693 87.9341 51.326 87.8821 51.326C87.8301 51.326 87.7781 51.378 87.7261 51.482C87.6741 51.5687 87.6047 51.7333 87.5181 51.976L84.7101 60.764Z" fill="white"/>
<path d="M103.646 55.096H107.39L105.752 50.494C105.717 50.4247 105.674 50.3467 105.622 50.26C105.587 50.156 105.552 50.104 105.518 50.104C105.483 50.104 105.44 50.156 105.388 50.26C105.353 50.3467 105.318 50.4247 105.284 50.494L103.646 55.096ZM101.358 46.802C101.496 46.4727 101.661 46.1693 101.852 45.892C102.042 45.6147 102.294 45.3807 102.606 45.19C102.918 44.9993 103.299 44.852 103.75 44.748C104.218 44.644 104.807 44.592 105.518 44.592C105.951 44.592 106.367 44.618 106.766 44.67C107.182 44.7047 107.563 44.8 107.91 44.956C108.274 45.0947 108.603 45.3113 108.898 45.606C109.21 45.9007 109.47 46.2993 109.678 46.802L116.412 63H110.224L108.794 59.256H102.242L100.812 63H94.6236L101.358 46.802Z" fill="white"/>
<path d="M119.538 63V49.324H113.038V44.8H131.914V49.324H125.414V63H119.538Z" fill="white"/>
</g>
<defs>
<filter id="filter0_d_109_11" x="0.124756" y="0.00177002" width="133.289" height="99.4341" filterUnits="userSpaceOnUse" color-interpolation-filters="sRGB">
<feFlood flood-opacity="0" result="BackgroundImageFix"/>
<feColorMatrix in="SourceAlpha" type="matrix" values="0 0 0 0 0 0 0 0 0 0 0 0 0 0 0 0 0 0 127 0" result="hardAlpha"/>
<feOffset dx="1.5" dy="1"/>
<feComposite in2="hardAlpha" operator="out"/>
<feColorMatrix type="matrix" values="0 0 0 0 0 0 0 0 0 0 0 0 0 0 0 0 0 0 0.25 0"/>
<feBlend mode="normal" in2="BackgroundImageFix" result="effect1_dropShadow_109_11"/>
<feBlend mode="normal" in="SourceGraphic" in2="effect1_dropShadow_109_11" result="shape"/>
</filter>
</defs>
</svg>
